Coordinates
version=1
nRows=30
nColumns=33
inDegrees=yes

Units are S.I. units (second, meters, Newtons, ...)
Angles are in degrees.

endheader
time	ground_thorax_rot_x	ground_thorax_rot_y	ground_thorax_rot_z	ground_thorax_tx	ground_thorax_ty	ground_thorax_tz	clav_prot_r	clav_elev_r	scapula_abduction_r	scapula_elevation_r	scapula_upward_rot_r	scapula_winging_r	shoulder_elv_r	plane_of_elev_r	axial_rot_r	elbow_flexion_r	pro_sup_r	wrist_flex_r	wrist_dev_r	clav_prot_l	clav_elev_l	scapula_abduction_l	scapula_elevation_l	scapula_upward_rot_l	scapula_winging_l	shoulder_elv_l	plane_of_elev_l	axial_rot_l	elbow_flexion_l	pro_sup_l	wrist_flex_l	wrist_dev_l	
2.3500	-7.248198	4.377771	-2.350110	-0.073864	1.040346	-0.034067	-9.298705	9.741877	14.606963	2.178572	45.000000	-12.491352	70.741911	16.923142	-40.139138	87.323588	56.071816	11.525104	-15.853252	8.237779	7.372150	-27.704861	-5.452591	18.027562	13.620686	92.374175	71.177473	43.079658	69.433211	35.760589	-28.334448	-24.982328	
2.3600	-7.319017	4.670085	-2.338143	-0.072639	1.040873	-0.033961	-9.382982	10.047454	14.368274	2.422021	45.000000	-12.511503	71.757801	17.781072	-40.649950	84.805325	55.790338	11.208186	-15.592209	8.038924	7.520578	-27.476873	-5.506252	18.268337	13.555921	92.670660	71.345313	43.375542	68.823778	35.345693	-27.804911	-24.968336	
2.3700	-7.385759	4.967102	-2.312757	-0.071444	1.041374	-0.033864	-9.445839	10.367334	14.163517	2.677588	45.000000	-12.535629	72.812993	18.583635	-41.144974	82.242639	55.508060	10.843107	-15.258490	7.857876	7.671165	-27.254015	-5.573619	18.470081	13.492467	92.947104	71.515274	43.639727	68.274181	34.962705	-27.296083	-24.943306	
2.3800	-7.448381	5.266155	-2.277912	-0.070283	1.041839	-0.033774	-9.488505	10.704233	13.989690	2.947439	45.000000	-12.563724	73.906972	19.333478	-41.626775	79.639559	55.220412	10.435224	-14.852857	7.692449	7.825420	-27.037798	-5.653177	18.641560	13.431363	93.197127	71.680530	43.865869	67.790731	34.615925	-26.810977	-24.900838	
2.3900	-7.511741	5.563715	-2.244591	-0.069138	1.042275	-0.033693	-9.522304	11.046339	13.828774	3.221716	45.000000	-12.591829	75.036827	20.047496	-42.099333	76.997873	54.907381	9.985035	-14.387023	7.531740	7.975902	-26.815451	-5.736407	18.791440	13.367099	93.432253	71.844373	44.053094	67.371457	34.295088	-26.332599	-24.835189	
2.4000	-7.580103	5.858954	-2.224991	-0.067970	1.042694	-0.033618	-9.570879	11.371888	13.642603	3.482280	45.000000	-12.612982	76.198608	20.761067	-42.563244	74.311027	54.532706	9.494532	-13.884917	7.355849	8.107631	-26.560671	-5.808307	18.930523	13.287758	93.675741	72.013318	44.209987	67.014886	33.978017	-25.827896	-24.739763	
2.4100	-7.654177	6.154946	-2.213017	-0.066780	1.043092	-0.033553	-9.634052	11.687649	13.429312	3.734524	45.000000	-12.627773	77.384208	21.464609	-43.011196	71.592017	54.100900	8.973897	-13.353545	7.170136	8.224334	-26.277361	-5.874014	19.051610	13.195179	93.928395	72.190018	44.339381	66.721143	33.669653	-25.304133	-24.619381	
2.4200	-7.732440	6.454208	-2.202720	-0.065581	1.043466	-0.033497	-9.707995	12.002553	13.193360	3.985867	45.000000	-12.637859	78.586421	22.145070	-43.435189	68.854905	53.623982	8.432966	-12.794579	6.981804	8.330324	-25.973923	-5.938553	19.149184	13.092589	94.183996	72.373340	44.444854	66.491262	33.374764	-24.775105	-24.481701	
2.4300	-7.814424	6.754451	-2.195388	-0.064384	1.043806	-0.033449	-9.788575	12.323444	12.940184	4.241921	45.000000	-12.644111	79.802800	22.795874	-43.831693	66.111094	53.111915	7.880553	-12.208616	6.795473	8.430674	-25.658630	-6.005494	19.224397	12.983932	94.444403	72.555742	44.528269	66.324695	33.092397	-24.251912	-24.338681	
2.4400	-7.898970	7.058190	-2.183932	-0.063203	1.044115	-0.033414	-9.870198	12.655864	12.678724	4.507413	45.000000	-12.648405	81.024774	23.401915	-44.192593	63.378347	52.576259	7.322468	-11.590793	6.618855	8.526125	-25.339108	-6.078118	19.267913	12.871801	94.697609	72.742974	44.590162	66.217752	32.826824	-23.747223	-24.196205	
2.4500	-7.984627	7.364019	-2.175795	-0.062038	1.044385	-0.033388	-9.951842	12.995688	12.412318	4.778904	45.000000	-12.651510	82.262707	23.963192	-44.514020	60.664330	52.007611	6.759339	-10.933060	6.450769	8.612406	-25.021046	-6.149831	19.289148	12.759205	94.941421	72.929339	44.626627	66.168746	32.578937	-23.261228	-24.058642	
2.4600	-8.073678	7.669842	-2.165632	-0.060907	1.044622	-0.033377	-10.029303	13.345935	12.147573	5.059088	45.000000	-12.653807	83.497445	24.473108	-44.792286	57.986394	51.422285	6.199169	-10.241324	6.296069	8.693844	-24.707078	-6.226450	19.280770	12.646720	95.168228	73.119128	44.638566	66.172778	32.347944	-22.801562	-23.931844	
2.4700	-8.164700	7.971345	-2.174257	-0.059788	1.044820	-0.033373	-10.112599	13.689033	11.870930	5.333424	45.000000	-12.652548	84.752272	24.952807	-45.027514	55.340384	50.796271	5.637571	-9.514466	6.140161	8.759006	-24.390423	-6.291173	19.267463	12.532252	95.390262	73.301930	44.623722	66.227848	32.123778	-22.347362	-23.815957	
2.4800	-8.259768	8.266594	-2.189168	-0.058693	1.044982	-0.033374	-10.200606	14.032234	11.581393	5.607893	45.000000	-12.647105	85.996314	25.401914	-45.211988	52.743582	50.154704	5.088527	-8.769542	5.987305	8.817422	-24.067924	-6.355747	19.237145	12.414041	95.605299	73.480710	44.587078	66.333857	31.905226	-21.905915	-23.716805	
2.4900	-8.355248	8.556631	-2.222949	-0.057607	1.045104	-0.033370	-10.300904	14.362967	11.268886	5.872013	45.000000	-12.636177	87.246533	25.834365	-45.343466	50.194561	49.480081	4.552636	-8.005609	5.828853	8.858778	-23.737292	-6.406930	19.205345	12.291410	95.820052	73.650242	44.530389	66.487527	31.688404	-21.463952	-23.632952	
2.5000	-8.451974	8.843100	-2.237257	-0.056579	1.045183	-0.033368	-10.392503	14.718799	10.960692	6.156810	45.000000	-12.624802	88.442174	26.213378	-45.409455	47.732262	48.845561	4.058519	-7.237917	5.692997	8.912059	-23.416404	-6.480231	19.133096	12.171105	96.009772	73.817174	44.456986	66.687660	31.492310	-21.069860	-23.573178	
2.5100	-8.543166	9.124283	-2.262255	-0.055585	1.045215	-0.033352	-10.483973	15.075912	10.648756	6.442762	45.000000	-12.611074	89.625975	26.560978	-45.417164	45.348404	48.217039	3.593516	-6.451468	5.563426	8.956771	-23.102636	-6.549103	19.051924	12.052432	96.185133	73.968659	44.362000	66.931346	31.310226	-20.702714	-23.529179	
2.5200	-8.632543	9.401896	-2.272599	-0.054648	1.045214	-0.033332	-10.564476	15.448283	10.348980	6.741499	45.000000	-12.597060	90.747616	26.859199	-45.360768	43.073594	47.627112	3.169962	-5.660371	5.454796	9.005060	-22.799144	-6.632676	18.932168	11.935305	96.335008	74.119421	44.248761	67.212128	31.150073	-20.384360	-23.501296	
2.5300	-8.715267	9.675732	-2.306856	-0.053723	1.045192	-0.033301	-10.648361	15.793767	10.049382	7.018503	45.000000	-12.579857	91.859909	27.139334	-45.249299	40.890390	47.003879	2.767124	-4.847627	5.343320	9.023385	-22.495408	-6.692449	18.809337	11.815288	96.476798	74.264467	44.113054	67.522557	30.996896	-20.074234	-23.477738	
2.5400	-8.797415	9.947910	-2.337189	-0.052837	1.045158	-0.033272	-10.722153	16.127980	9.770919	7.286849	45.000000	-12.562358	92.908888	27.378653	-45.079607	38.826416	46.377553	2.398397	-4.035332	5.245031	9.028989	-22.195916	-6.751811	18.653685	11.693164	96.601243	74.417812	43.959784	67.853983	30.856381	-19.793757	-23.461657	
2.5500	-8.872709	10.217178	-2.399448	-0.051961	1.045108	-0.033231	-10.791798	16.417555	9.515812	7.519282	45.000000	-12.544262	93.952674	27.596902	-44.857529	36.858343	45.681882	2.049163	-3.204235	5.142038	8.996121	-21.899817	-6.778288	18.501075	11.569300	96.720119	74.566551	43.781721	68.201155	30.715332	-19.512170	-23.446764	
2.5600	-8.947234	10.483626	-2.466501	-0.051119	1.045048	-0.033184	-10.845888	16.679147	9.300496	7.729671	45.000000	-12.527775	94.940165	27.777352	-44.578953	35.006233	44.946711	1.729310	-2.380911	5.046649	8.945592	-21.607052	-6.796929	18.326574	11.443203	96.826265	74.719233	43.584972	68.562468	30.574642	-19.247287	-23.437594	
2.5700	-9.023694	10.746219	-2.547332	-0.050309	1.044969	-0.033127	-10.884964	16.906876	9.126632	7.913198	45.000000	-12.512763	95.877633	27.921771	-44.263802	33.267209	44.174396	1.432709	-1.568228	4.953744	8.874604	-21.319591	-6.800891	18.144846	11.316508	96.926355	74.869690	43.369635	68.928986	30.431067	-18.992341	-23.432484	
2.5800	-9.099912	11.005031	-2.620545	-0.049556	1.044868	-0.033055	-10.898261	17.125775	9.005772	8.090505	45.000000	-12.500744	96.732753	28.017990	-43.921937	31.653811	43.412365	1.165470	-0.773123	4.875206	8.803218	-21.038600	-6.813837	17.933606	11.189398	97.011151	75.021798	43.145478	69.307697	30.285376	-18.768894	-23.435730	
2.5900	-9.175540	11.259344	-2.692356	-0.048853	1.044741	-0.032965	-10.889573	17.334656	8.931374	8.260442	45.000000	-12.491034	97.513619	28.072902	-43.576765	30.159214	42.671392	0.921929	0.011516	4.806575	8.726209	-20.763801	-6.828796	17.701779	11.061897	97.086404	75.171419	42.912932	69.692926	30.136541	-18.571039	-23.444858	
2.6000	-9.245603	11.507530	-2.751331	-0.048211	1.044593	-0.032851	-10.856936	17.550846	8.900294	8.437143	45.000000	-12.483520	98.208362	28.091165	-43.241073	28.780689	41.981972	0.703063	0.785233	4.753341	8.656407	-20.492050	-6.861068	17.435257	10.932329	97.146601	75.318294	42.680683	70.098699	29.984192	-18.409064	-23.462817	
2.6100	-9.309459	11.750382	-2.810599	-0.047614	1.044433	-0.032722	-10.805506	17.764350	8.907061	8.612274	45.000000	-12.477732	98.835353	28.076149	-42.923902	27.511790	41.321214	0.508079	1.569242	4.706344	8.572602	-20.219100	-6.889910	17.143808	10.798201	97.196847	75.467353	42.440806	70.510947	29.822143	-18.265473	-23.482944	
2.6200	-9.363588	11.988561	-2.871983	-0.047058	1.044269	-0.032572	-10.739541	17.975176	8.943423	8.785716	45.000000	-12.473293	99.404676	28.038165	-42.627715	26.340631	40.688436	0.335310	2.359062	4.665433	8.478231	-19.943184	-6.918718	16.826412	10.659088	97.236417	75.618111	42.197245	70.939263	29.650492	-18.138423	-23.506000	
2.6300	-9.415354	12.224146	-2.937551	-0.046535	1.044102	-0.032414	-10.665697	18.178207	8.998351	8.953098	45.000000	-12.469195	99.914167	27.978669	-42.358301	25.259824	40.077884	0.186407	3.147301	4.627136	8.368114	-19.663902	-6.941291	16.489269	10.514881	97.270950	75.777639	41.948207	71.366483	29.471085	-18.018269	-23.527287	
2.6400	-9.473466	12.456777	-3.007254	-0.046049	1.043930	-0.032247	-10.591994	18.378851	9.053437	9.118611	45.000000	-12.464252	100.351833	27.897522	-42.126164	24.275176	39.528874	0.062615	3.895024	4.594651	8.262507	-19.387901	-6.971880	16.140803	10.370438	97.308274	75.936454	41.701471	71.800338	29.296442	-17.915858	-23.551805	
